<svg width="30" height="30" viewBox="0 0 30 30" fill="none" xmlns="http://www.w3.org/2000/svg">
<path d="M22.2843 20.7738C20.4716 20.95 18.7436 20.3668 16.9973 20.0326C14.9913 19.6499 13.0034 19.4798 10.9913 19.8747C10.52 19.9658 10.2964 19.8504 10.0668 19.4494C8.84023 17.2866 7.58947 15.142 6.35685 12.9913C6.20579 12.724 6.02452 12.4871 6.34476 12.159C8.28434 10.1481 9.07588 7.5539 9.91576 4.98403C10.2843 3.84794 10.659 2.71186 11.3115 1.67297C13.4203 8.95122 17.0638 15.2574 22.2843 20.7738Z" fill="#636B7B"/>
<path d="M24.4596 19.2611C24.4596 20.2513 24.0124 20.5673 23.233 20.0205C21.1544 18.5685 19.801 16.4664 18.3871 14.419C18.1635 14.091 18.4777 13.9998 18.6167 13.8297C19.7405 12.4992 19.9278 11.1323 19.1786 9.80784C18.4535 8.53202 17.1423 7.99132 15.4384 8.30724C15.0819 8.37406 14.8946 8.37406 14.7133 7.97917C13.813 6.04721 12.9369 4.10918 12.526 2.00104C12.4716 1.72157 12.4475 1.43603 12.4596 1.15657C12.5019 0.31817 12.9127 0.0569311 13.6378 0.506506C14.1997 0.858875 14.7435 1.29022 15.1846 1.7884C19.1786 6.35098 22.1272 11.5332 24.1151 17.2744C24.3327 17.9123 24.4596 18.5806 24.4596 19.2611Z" fill="#636B7B"/>
<path d="M5.03962 22.7422C2.3508 22.7544 0.743551 21.5879 0.18766 19.8321C-0.356147 18.1128 0.308505 16.1383 1.83721 15.1298C2.7798 14.5101 3.79491 13.9877 4.75563 13.3983C5.1363 13.1675 5.34174 13.1675 5.58343 13.5928C6.76168 15.7009 7.97618 17.7908 9.17255 19.8868C9.28736 20.0934 9.51092 20.3485 9.17255 20.5186C7.54113 21.3206 6.16349 22.6997 5.03962 22.7422Z" fill="#636B7B"/>
<path d="M9.26923 21.6669C9.78886 23.6231 10.7315 25.3364 12.0185 26.8856C12.6287 27.6207 12.4233 28.775 11.7466 29.4129C10.9973 30.1177 9.92784 30.227 9.14234 29.5527C7.42028 28.0824 6.3508 26.193 5.79491 23.9998C5.71636 23.696 5.76469 23.5502 6.03056 23.4044C7.08796 22.8455 8.13932 22.2744 9.26923 21.6669Z" fill="#636B7B"/>
<path d="M25.9883 11.9707C25.7405 11.9707 25.4928 11.9646 25.2451 11.9707C24.8946 11.9829 24.6892 11.7885 24.6892 11.4725C24.6952 11.187 24.9369 11.0776 25.2148 11.0655C26.5925 11.0047 27.9641 10.9379 29.3417 10.8772C29.6378 10.865 29.9641 10.8832 29.9883 11.2477C30.0185 11.6426 29.7405 11.7763 29.3659 11.7945C28.236 11.831 27.1121 11.8917 25.9822 11.9464C25.9883 11.9525 25.9883 11.9586 25.9883 11.9707Z" fill="#636B7B"/>
<path d="M21.0034 4.66207C20.4958 4.56486 20.3871 4.24895 20.6106 3.88442C21.3478 2.67543 22.1212 1.48467 22.8886 0.293902C23.0336 0.0630395 23.233 -0.0766932 23.5109 0.0448135C23.8009 0.172396 23.8432 0.445786 23.7103 0.670573C22.9369 1.94032 22.1393 3.19791 21.3357 4.44943C21.2692 4.54664 21.1061 4.59524 21.0034 4.66207Z" fill="#636B7B"/>
<path d="M23.9701 7.76052C23.7828 7.7666 23.6136 7.718 23.5411 7.52966C23.4626 7.31095 23.4928 7.09224 23.6982 6.96465C24.9732 6.21131 26.2541 5.46405 27.5351 4.73501C27.7768 4.60135 28.0245 4.65603 28.1635 4.92334C28.2783 5.14813 28.2118 5.34862 28.0064 5.47012C26.7315 6.22346 25.4505 6.96465 24.1756 7.70585C24.1152 7.74837 24.0366 7.7423 23.9701 7.76052Z" fill="#636B7B"/>
</svg>
