<svg width="27" height="30" viewBox="0 0 27 30" fill="none" xmlns="http://www.w3.org/2000/svg">
<path d="M13.5064 24.3483C9.10173 24.3559 5.56216 20.7789 5.56216 16.3152C5.5584 11.8668 9.12806 8.24383 13.4989 8.25148C17.866 8.25912 21.4169 11.8897 21.4056 16.3457C21.398 20.7674 17.8698 24.3407 13.5064 24.3483ZM12.5548 14.1521C12.5548 14.8324 12.5473 15.5164 12.5585 16.1967C12.5698 16.8617 12.9159 17.2171 13.5666 17.2247C14.4957 17.2362 15.4248 17.2362 16.3539 17.2247C16.9332 17.2171 17.3093 16.8731 17.3244 16.3152C17.3432 15.7113 16.9708 15.3521 16.3501 15.3406C15.8611 15.3292 15.3684 15.3139 14.8794 15.3445C14.4995 15.3712 14.4017 15.2298 14.4092 14.8591C14.4318 13.9419 14.4318 13.0247 14.4092 12.1037C14.3979 11.4808 14.0406 11.0986 13.4425 11.1177C12.8858 11.1368 12.5623 11.5152 12.5548 12.1075C12.5473 12.7878 12.5548 13.4719 12.5548 14.1521Z" fill="#636B7B"/>
<path d="M9.54558 4.62473C9.87283 4.88078 10.2302 5.10626 10.5236 5.40053C10.8847 5.76358 10.911 6.21836 10.5612 6.60053C10.1926 7.00562 9.71109 7.04002 9.31613 6.66167C8.43218 5.80944 7.57456 4.93428 6.73575 4.04002C6.38217 3.66167 6.42731 3.21072 6.78465 2.83619C7.61594 1.96868 8.45099 1.10881 9.30861 0.271863C9.67347 -0.0835508 10.1286 -0.0950158 10.4972 0.26422C10.8884 0.646385 10.9035 1.11263 10.5311 1.52537C10.2527 1.83492 9.93302 2.10626 9.58696 2.43492C9.92549 2.65658 10.2339 2.56486 10.5198 2.56486C12.8444 2.58014 15.1728 2.46549 17.4447 3.18014C23.339 5.02982 27.4578 11.0489 26.9538 17.133C26.3933 23.8591 21.6162 29.0642 15.2518 29.8859C7.04043 30.9407 -0.15907 24.4553 0.00267391 16.0859C0.0741423 12.3827 1.42076 9.18779 4.00866 6.55084C4.46004 6.09225 4.94904 5.79416 5.47565 6.34447C5.99849 6.89097 5.68629 7.3725 5.2462 7.83874C2.03012 11.2591 0.92424 15.2795 2.29718 19.812C3.67013 24.3368 6.79593 27.0731 11.3511 28.0362C17.9488 29.4349 24.6329 24.2833 25.1595 17.4464C25.6523 11.0184 21.6275 5.6604 15.3909 4.5139C13.529 4.16995 11.6332 4.3725 9.75247 4.33811C9.681 4.43747 9.61329 4.52919 9.54558 4.62473Z" fill="#636B7B"/>
</svg>
