<svg width="28" height="30" viewBox="0 0 28 30" fill="none" xmlns="http://www.w3.org/2000/svg">
<path d="M8.77462 25.8483C6.74034 25.8483 4.71323 25.8483 2.67895 25.8483C1.03147 25.8411 0 24.8247 0 23.1783C0 19.8068 0 16.4424 0 13.0709C0 11.4102 1.03147 10.3866 2.69327 10.3866C4.77769 10.3866 6.86928 10.3937 8.9537 10.3794C9.74162 10.3723 10.3791 10.6443 10.902 11.2312C11.6255 12.0473 12.3848 12.8418 13.101 13.665C13.6454 14.2878 14.3044 14.567 15.1353 14.5598C17.8501 14.5455 20.5577 14.5526 23.2724 14.5526C24.5475 14.5526 25.5431 15.2971 25.7866 16.4782C25.9371 17.2226 25.8368 17.9886 25.8511 18.7473C25.8511 18.8619 25.3067 19.1768 25.1491 19.1625C24.8698 19.1339 24.8769 18.9191 24.8769 18.7115C24.8698 17.5806 24.1392 16.8504 23.0146 16.8361C22.4988 16.8289 21.9903 16.8289 21.4745 16.8361C20.35 16.8504 19.6122 17.5806 19.5979 18.7044C19.5907 19.1911 19.4403 19.2699 19.0033 19.0337C18.0148 18.4896 17.0263 18.7617 16.4533 19.7352C16.1883 20.1861 15.9233 20.6371 15.6726 21.0952C15.1568 22.0258 15.429 23.0279 16.3387 23.5791C16.8043 23.8583 16.8115 24.0086 16.353 24.2949C15.8445 24.6171 15.5006 25.0466 15.4362 25.655C15.4147 25.9055 15.2499 25.834 15.1282 25.834C13.2228 25.834 11.3103 25.834 9.40496 25.834C9.19724 25.8483 8.98951 25.8483 8.77462 25.8483ZM6.61141 22.713C7.47813 22.713 8.35201 22.7201 9.21873 22.713C9.79176 22.7058 10.1284 22.3694 10.1356 21.7967C10.1427 21.4746 10.1427 21.1525 10.1356 20.8304C10.1284 20.2434 9.7846 19.8927 9.19724 19.8927C7.45664 19.8855 5.71604 19.8855 3.9826 19.8927C3.43106 19.8927 3.08723 20.2219 3.06575 20.7803C3.05142 21.1024 3.05858 21.4245 3.06575 21.7466C3.07291 22.3837 3.4024 22.713 4.03991 22.713C4.89946 22.7201 5.75902 22.713 6.61141 22.713Z" fill="#636B7B"/>
<path d="M13.1154 12.0687C14.3832 12.0687 15.5651 12.0687 16.747 12.0687C16.8616 12.0687 16.969 12.0687 17.0837 12.0687C17.4275 12.0544 17.6495 11.8397 17.6495 11.539C17.6495 11.2384 17.4203 11.0165 17.0765 11.0093C16.7756 10.995 16.4748 11.0093 16.174 11.0093C14.9348 11.0093 13.6956 11.0021 12.4564 11.0165C12.22 11.0165 12.0624 10.9592 11.9192 10.7731C11.3963 10.1217 10.7731 9.62062 9.94219 9.42734C9.62702 9.35576 9.30469 9.32713 8.98235 9.32713C7.11998 9.32713 5.25761 9.31997 3.38808 9.33429C3.13022 9.33429 3.05859 9.26986 3.05859 9.00501C3.06575 6.47817 3.05859 3.95132 3.05859 1.43164C3.05859 0.51539 3.56716 0.0071582 4.48401 0.0071582C8.35917 0.0071582 12.2272 0.0071582 16.1023 0C16.3602 0 16.439 0.0572656 16.4318 0.322119C16.4175 1.53901 16.4247 2.75591 16.4247 3.9728C16.4247 5.13959 17.1123 5.82677 18.2727 5.82677C19.4976 5.82677 20.7296 5.83393 21.9545 5.81961C22.1837 5.81961 22.2553 5.87688 22.2481 6.1131C22.241 8.4753 22.241 10.8447 22.2481 13.2069C22.2481 13.4503 22.1694 13.5004 21.9473 13.5004C19.648 13.4932 17.3487 13.4932 15.0494 13.5004C14.5909 13.5004 14.2328 13.35 13.9391 12.9921C13.6956 12.6915 13.4305 12.4123 13.1154 12.0687ZM11.8547 9.06228C13.5165 9.06228 15.1855 9.06228 16.8473 9.06228C17.3917 9.06228 17.6495 8.89048 17.6424 8.52541C17.6352 8.1675 17.363 7.98855 16.8258 7.98855C13.495 7.98855 10.1714 7.98855 6.84063 7.98855C6.70453 7.98855 6.56843 7.98855 6.4395 8.01718C6.14582 8.08876 6.00972 8.28919 6.03838 8.58268C6.06703 8.86185 6.23894 9.01933 6.51829 9.04796C6.61858 9.05512 6.71886 9.05512 6.81914 9.05512C8.5096 9.06228 10.1786 9.06228 11.8547 9.06228ZM10.3505 6.06299C11.5753 6.06299 12.8074 6.06299 14.0322 6.06299C14.4334 6.06299 14.6769 5.86256 14.6841 5.5476C14.6912 5.21832 14.4405 5.01074 14.0251 4.99642C13.9821 4.99642 13.9391 4.99642 13.889 4.99642C11.5395 4.99642 9.18291 4.99642 6.83346 4.99642C6.71169 4.99642 6.58992 4.99642 6.46815 5.0179C6.16731 5.07516 5.9954 5.3257 6.0527 5.62634C6.11717 5.96278 6.36071 6.05583 6.66872 6.05583C7.90075 6.06299 9.12561 6.06299 10.3505 6.06299Z" fill="#636B7B"/>
<path d="M16.5035 25.9055C16.4891 25.5261 16.7183 25.3328 17.0049 25.1682C17.6209 24.8175 17.8716 24.2734 17.714 23.6292C17.6209 23.2355 17.3845 22.9635 17.0335 22.7631C16.4247 22.4123 16.3459 22.0973 16.704 21.4746C16.9261 21.088 17.1481 20.7015 17.3773 20.3221C17.6782 19.8139 18.0077 19.7208 18.5162 20.0143C19.0177 20.3078 19.5262 20.3651 20.0348 20.0573C20.4646 19.7924 20.6723 19.3987 20.6795 18.8833C20.6795 18.1389 20.8943 17.9313 21.6393 17.9313C22.0762 17.9313 22.5132 17.9313 22.943 17.9313C23.5733 17.9384 23.8025 18.1747 23.8097 18.8046C23.8168 19.6135 24.2753 20.1646 25.0345 20.2577C25.3569 20.3006 25.6434 20.1933 25.9227 20.0358C26.4886 19.7137 26.811 19.8067 27.1333 20.3722C27.3553 20.7588 27.5774 21.1453 27.7994 21.5318C28.1218 22.0902 28.0358 22.4266 27.4771 22.7487C26.9184 23.0637 26.6677 23.5218 26.7393 24.1589C26.7895 24.617 27.0473 24.932 27.4341 25.1611C28.0501 25.5261 28.1289 25.8268 27.7708 26.4424C27.5487 26.8289 27.3267 27.2155 27.1046 27.602C26.811 28.1031 26.46 28.2104 25.9657 27.917C25.5145 27.6449 25.0489 27.5662 24.5689 27.8024C24.0675 28.053 23.8097 28.4681 23.8025 29.0336C23.7953 29.7924 23.5805 30.0072 22.8283 30.0072C22.4344 30.0072 22.0476 30.0072 21.6536 30.0072C20.9015 30.0072 20.6795 29.7924 20.6651 29.0408C20.6508 28.3608 20.2712 27.8597 19.6265 27.7022C19.2612 27.6092 18.9245 27.6807 18.595 27.8669C17.9575 28.2248 17.671 28.1389 17.2985 27.4946C17.0693 27.1009 16.8401 26.7001 16.6109 26.3064C16.5536 26.1704 16.4963 26.0415 16.5035 25.9055ZM24.834 23.98C24.8411 22.5412 23.6951 21.3744 22.2625 21.3672C20.8442 21.3601 19.6766 22.5054 19.6623 23.9155C19.648 25.3758 20.8012 26.5426 22.2553 26.5426C23.6736 26.5497 24.8196 25.4044 24.834 23.98Z" fill="#636B7B"/>
<path d="M17.6209 0.128906C19.1323 1.62497 20.6365 3.12819 22.1192 4.63141C22.0118 4.78889 21.9258 4.7531 21.8542 4.7531C20.658 4.7531 19.4618 4.7531 18.2727 4.7531C17.714 4.7531 17.5063 4.53836 17.5063 3.98717C17.5063 2.72733 17.5063 1.46749 17.5063 0.207646C17.5421 0.179014 17.5851 0.157539 17.6209 0.128906Z" fill="#636B7B"/>
</svg>
