<svg width="30" height="30" viewBox="0 0 30 30" fill="none" xmlns="http://www.w3.org/2000/svg">
<path d="M25.3361 12.6399C25.3888 14.8024 24.8355 16.8381 23.7639 18.6767C23.2369 19.5828 23.4301 20.0556 24.0976 20.686C25.5821 22.0868 27.0138 23.5446 28.4499 24.9936C30.2285 26.7841 30.4876 28.1236 29.1789 29.2618C27.4178 30.794 26.131 29.6646 24.8882 28.3907C23.6146 27.0861 22.2268 25.8823 21.0454 24.5033C20.1319 23.4395 19.4029 23.3695 18.1205 23.9736C11.3879 27.1474 3.54868 24.0743 0.904847 17.3371C-1.82243 10.3854 1.82711 2.83397 9.00761 0.570724C17.0138 -1.9508 25.3449 4.20855 25.3361 12.6399ZM12.5518 22.2488C18.0107 22.297 22.3278 18.0857 22.3409 12.7012C22.3541 7.39547 18.1337 3.0616 12.8811 2.98718C7.48807 2.91276 3.03045 7.17221 2.95579 12.4779C2.88113 17.8712 7.13234 22.2007 12.5518 22.2488Z" fill="#636B7B"/>
</svg>
