<svg width="30" height="30" viewBox="0 0 30 30" fill="none" xmlns="http://www.w3.org/2000/svg">
<path d="M6.6776 30.0005C5.85739 30.0005 5.03718 30.0005 4.21697 30.0005C3.7006 29.6931 3.50741 29.3822 3.58293 28.9765C3.66372 28.5357 3.93595 28.3302 4.56296 28.2371C4.98449 28.1756 5.30765 27.8314 5.32697 27.4028C5.33927 27.1306 5.32346 26.8566 5.334 26.5844C5.33927 26.4509 5.29009 26.421 5.16714 26.4228C4.89491 26.4298 4.62092 26.4281 4.34869 26.4228C2.43253 26.3929 0.700779 25.0599 0.166852 23.2157C0.114162 23.0348 0.129969 22.8328 0 22.6748C0 18.73 0 14.7836 0 10.8388C0.0772788 10.8177 0.0562028 10.7475 0.0684972 10.6948C0.600667 8.44844 2.31661 7.08904 4.61741 7.08904C8.6201 7.08904 12.6228 7.08728 16.6255 7.08904C19.2354 7.08904 21.1516 9.00345 21.1516 11.6116C21.1533 15.0382 21.1533 18.4648 21.1516 21.8914C21.1516 24.5049 19.2389 26.421 16.6325 26.4228C14.6795 26.4246 12.7282 26.4263 10.7751 26.4175C10.5696 26.4158 10.5029 26.4772 10.4467 26.6704C9.94087 28.3829 8.83262 29.4718 7.08858 29.9056C6.94983 29.9425 6.79351 29.8845 6.6776 30.0005ZM6.21041 17.6376C5.64487 17.6376 5.07933 17.6341 4.51203 17.6376C3.94473 17.6411 3.5759 18.0047 3.57415 18.5667C3.57063 19.6978 3.57063 20.8306 3.57415 21.9617C3.5759 22.5448 3.93947 22.9066 4.52608 22.9084C5.64838 22.9119 6.77068 22.9119 7.89298 22.9084C8.4796 22.9066 8.84492 22.5448 8.84667 21.9635C8.85018 20.8324 8.85018 19.6995 8.84667 18.5685C8.84492 18.0047 8.47608 17.6411 7.91054 17.6376C7.34149 17.6358 6.77595 17.6376 6.21041 17.6376ZM9.37357 11.9067C9.34723 11.5572 9.19091 11.2691 8.83789 11.1251C8.4796 10.9793 8.14589 11.0373 7.86839 11.313C7.24489 11.9295 6.62315 12.5495 6.00843 13.1765C5.89603 13.2907 5.82753 13.3135 5.71337 13.1835C5.54476 12.9938 5.36034 12.82 5.17768 12.6443C4.79656 12.2808 4.27317 12.2755 3.9219 12.625C3.57415 12.9693 3.5759 13.512 3.93771 13.8826C4.35923 14.3146 4.78778 14.7432 5.21983 15.1647C5.60272 15.5388 6.11557 15.5405 6.49845 15.1629C7.3731 14.2988 8.23722 13.4277 9.10661 12.5583C9.27697 12.3826 9.36304 12.1701 9.37357 11.9067ZM14.1157 17.6376C13.2762 17.6376 12.4384 17.6376 11.5989 17.6376C11.007 17.6376 10.6065 17.9906 10.603 18.5123C10.6013 19.0339 10.9999 19.3957 11.5883 19.3957C13.2762 19.3975 14.964 19.3975 16.6518 19.3957C17.2385 19.3957 17.6389 19.0304 17.6319 18.507C17.6266 17.9941 17.2314 17.6394 16.6606 17.6394C15.8141 17.6358 14.964 17.6376 14.1157 17.6376ZM13.241 12.3651C13.7978 12.3651 14.3528 12.3668 14.9095 12.3651C15.4768 12.3633 15.872 12.0033 15.8755 11.4922C15.879 10.9811 15.4821 10.6105 14.9201 10.6087C13.7978 10.607 12.6772 10.607 11.5549 10.6087C10.9947 10.6105 10.5977 10.9828 10.603 11.4957C10.6083 11.9945 11.0017 12.3616 11.5444 12.3651C12.1099 12.3668 12.6755 12.3651 13.241 12.3651ZM12.3576 14.1232C12.0748 14.1232 11.792 14.1197 11.5093 14.1232C10.9929 14.132 10.6048 14.5078 10.603 14.9961C10.6013 15.4843 10.9859 15.8707 11.5005 15.8778C12.0748 15.8848 12.6509 15.8848 13.2252 15.8778C13.7381 15.8707 14.1227 15.4808 14.1157 14.9908C14.1104 14.5113 13.731 14.1355 13.2322 14.1232C12.9424 14.1161 12.6509 14.1232 12.3576 14.1232ZM12.391 21.1538C12.0889 21.1538 11.7868 21.1468 11.4847 21.1555C10.9894 21.1678 10.6083 21.549 10.6048 22.0249C10.6013 22.5027 10.9771 22.8996 11.4689 22.9084C12.0625 22.9189 12.6579 22.9189 13.2533 22.9084C13.7451 22.8996 14.1227 22.5027 14.1192 22.0249C14.1157 21.5455 13.7381 21.1678 13.2393 21.1555C12.9565 21.1468 12.6737 21.1538 12.391 21.1538Z" fill="#636B7B"/>
<path d="M21.1516 0.00224811C23.1538 0.00224811 25.1543 0.000491775 27.1565 0.00224811C28.8619 0.00400445 29.9982 1.14035 29.9982 2.844C29.9982 5.07982 29.9982 7.31564 29.9982 9.55146C29.9982 11.2147 28.8514 12.3598 27.1846 12.3651C26.9422 12.3651 26.6173 12.2808 26.4785 12.402C26.317 12.5443 26.4294 12.878 26.4259 13.1274C26.4206 13.7386 26.7332 14.074 27.3304 14.1214C27.8327 14.1618 28.1945 14.5447 28.1804 15.0242C28.1664 15.5037 27.787 15.8743 27.2812 15.8778C26.598 15.8813 25.9077 15.9287 25.2333 15.8514C23.9354 15.7021 22.9553 14.5447 22.9097 13.2046C22.8816 12.3756 22.9466 11.5467 22.857 10.7177C22.5795 8.15692 20.4929 5.91057 17.955 5.45041C17.5124 5.36962 17.0663 5.33098 16.6167 5.33098C15.2889 5.33449 13.9611 5.32922 12.6333 5.33625C12.4331 5.338 12.3471 5.31517 12.3541 5.07631C12.3734 4.28596 12.3576 3.4956 12.3611 2.7035C12.3681 1.14914 13.5062 0.00400445 15.0588 0.000491775C17.0892 -0.00126456 19.1195 0.00224811 21.1516 0.00224811Z" fill="#636B7B"/>
<path d="M6.2069 21.1398C5.92588 21.1398 5.54651 21.2505 5.38844 21.11C5.20578 20.9484 5.34102 20.562 5.33224 20.2722C5.32522 19.9912 5.23037 19.6118 5.37264 19.4537C5.53598 19.2711 5.92237 19.4063 6.21041 19.3975C6.49142 19.3905 6.87079 19.2957 7.02886 19.4379C7.21152 19.6013 7.07628 19.9877 7.08506 20.2757C7.09209 20.5567 7.18693 20.9343 7.04467 21.0959C6.88133 21.2803 6.49669 21.124 6.2069 21.1398Z" fill="#636B7B"/>
</svg>
