<svg width="30" height="30" viewBox="0 0 30 30" fill="none" xmlns="http://www.w3.org/2000/svg">
<path d="M0 20.9801C0.103169 20.9285 0.0884304 20.818 0.117907 20.7295C0.604274 19.2041 1.22329 17.7303 2.36551 16.5807C4.42889 14.4952 6.92705 13.832 9.74208 14.591C11.5844 15.0921 13.3751 15.1068 15.21 14.5836C17.325 13.9794 19.3368 14.3036 21.2159 15.4532C21.297 15.5048 21.378 15.5637 21.4886 15.6374C21.2159 15.748 20.9654 15.8364 20.7148 15.9396C17.2292 17.3766 15.0479 20.8843 15.2837 24.6573C15.2911 24.7973 15.2911 24.93 15.3058 25.07C15.3574 25.5711 15.3648 25.5711 14.8416 25.6301C9.55785 26.1901 4.73102 24.9595 0.36846 21.916C0.213707 21.8054 0.125276 21.6433 0 21.518C0 21.3264 0 21.1496 0 20.9801Z" fill="#636B7B"/>
<path d="M23.8467 29.9999C23.3235 29.7273 23.2056 29.2851 23.2351 28.7324C23.2646 28.1429 23.2424 28.1429 22.7045 27.9366C22.5055 27.8629 22.3066 27.7744 22.1297 27.6639C21.9602 27.5607 21.857 27.5902 21.7391 27.7302C21.5696 27.9218 21.3854 28.0987 21.2012 28.2682C20.818 28.6219 20.2874 28.6145 19.941 28.2534C19.6021 27.9071 19.6094 27.3913 19.9632 27.0154C20.1474 26.8165 20.3464 26.6249 20.5453 26.4333C20.6485 26.3375 20.6559 26.2564 20.5822 26.1385C20.3906 25.829 20.2579 25.4974 20.1695 25.1436C20.14 25.011 20.0811 24.9742 19.9484 24.9742C19.6684 24.9815 19.381 24.9815 19.101 24.9742C18.6072 24.952 18.2461 24.591 18.2314 24.1267C18.2167 23.6698 18.5704 23.2719 19.0567 23.2277C19.3515 23.2055 19.6389 23.2129 19.9337 23.2203C20.0663 23.2203 20.14 23.1908 20.1769 23.0434C20.2579 22.6897 20.3979 22.3581 20.5895 22.0486C20.6632 21.9307 20.6485 21.8644 20.5527 21.7759C20.3537 21.5917 20.1621 21.3927 19.9705 21.1938C19.6094 20.8106 19.6021 20.2947 19.9484 19.9336C20.2948 19.5873 20.8254 19.5873 21.2085 19.9484C21.437 20.1621 21.6212 20.4863 21.8865 20.5821C22.1518 20.6779 22.4097 20.361 22.6898 20.2652C23.2424 20.081 23.2424 20.0663 23.2424 19.4841C23.2424 19.3293 23.2351 19.1746 23.2498 19.0125C23.2867 18.5851 23.6256 18.2461 24.0457 18.2166C24.4878 18.1871 24.8784 18.4672 24.9668 18.9019C25.0332 19.2188 24.9963 19.5431 24.9963 19.8673C24.9963 20.0368 25.0258 20.1252 25.2174 20.1694C25.549 20.2431 25.8659 20.3831 26.1533 20.56C26.2712 20.6337 26.3522 20.6337 26.448 20.5232C26.6323 20.3242 26.8239 20.1252 27.0228 19.941C27.3913 19.5946 27.9145 19.5873 28.2609 19.9263C28.6072 20.2579 28.622 20.7884 28.283 21.1643C28.0914 21.3706 27.8924 21.5696 27.6861 21.7686C27.5829 21.8644 27.5682 21.938 27.6419 22.0633C27.8335 22.3728 27.9735 22.7044 28.0545 23.0582C28.084 23.1982 28.1577 23.2277 28.2756 23.2203C28.5262 23.2129 28.7841 23.2129 29.0346 23.2203C29.5947 23.2277 29.9926 23.6035 29.9926 24.112C29.9926 24.6131 29.6094 24.9668 29.0567 24.9889C28.8136 24.9963 28.5704 24.9963 28.3272 24.9889C28.1651 24.9815 28.084 25.0184 28.0472 25.1952C27.9735 25.5268 27.8408 25.8437 27.6566 26.1311C27.5682 26.2638 27.5829 26.3448 27.7008 26.4554C27.8998 26.6396 28.0987 26.8312 28.283 27.0375C28.6293 27.4134 28.622 27.9366 28.283 28.2756C27.944 28.6145 27.4208 28.6219 27.045 28.2756C26.846 28.0913 26.6544 27.8924 26.4702 27.6934C26.3817 27.5976 26.308 27.5534 26.1754 27.6418C25.8733 27.8334 25.5343 27.9734 25.1805 28.0545C25.0258 28.0913 25.0037 28.1724 25.0037 28.2977C25.0111 28.4819 24.9963 28.6661 25.0111 28.8504C25.0479 29.3957 24.8563 29.7936 24.3257 29.9926C24.1636 29.9999 24.0015 29.9999 23.8467 29.9999ZM26.4407 24.1193C26.448 22.815 25.4016 21.7686 24.1046 21.7759C22.815 21.7759 21.7833 22.8076 21.776 24.0972C21.7686 25.3795 22.8003 26.4259 24.0825 26.4406C25.3869 26.448 26.4333 25.4163 26.4407 24.1193Z" fill="#636B7B"/>
<path d="M5.84377 6.59549C5.85114 2.94036 8.83567 -0.0146835 12.4982 5.48923e-05C16.1238 0.0147933 19.101 3.00669 19.0936 6.6397C19.0862 10.2948 16.1091 13.272 12.4613 13.2646C8.79145 13.2572 5.82904 10.2727 5.84377 6.59549Z" fill="#636B7B"/>
</svg>
