<svg width="507" height="350" viewBox="0 0 507 350" fill="none" xmlns="http://www.w3.org/2000/svg">
<g clip-path="url(#clip0_2676_27630)">
<path d="M199.901 284.54C310.177 284.54 399.573 220.817 399.573 142.211C399.573 63.6045 310.177 -0.118378 199.901 -0.118378C89.6248 -0.118378 0.228516 63.6045 0.228516 142.211C0.228516 220.817 89.6248 284.54 199.901 284.54Z" fill="#F5F5FF"/>
<path d="M415.452 342.665C465.792 342.665 506.601 337.004 506.601 330.02C506.601 323.036 465.792 317.375 415.452 317.375C365.112 317.375 324.303 323.036 324.303 330.02C324.303 337.004 365.112 342.665 415.452 342.665Z" fill="#DFDFEB"/>
<path d="M224.402 350.144C315.345 350.144 389.068 343.866 389.068 336.122C389.068 328.377 315.345 322.099 224.402 322.099C133.46 322.099 59.7363 328.377 59.7363 336.122C59.7363 343.866 133.46 350.144 224.402 350.144Z" fill="#DFDFEB"/>
<path d="M255.885 87.5858C255.885 87.5858 252.838 105.272 230.635 128.037C230.635 128.037 228.181 125.001 232.427 112.419C236.672 99.8366 254.619 83.3017 255.885 87.5858Z" fill="#7E9E6E"/>
<path d="M255.886 87.5858C255.886 87.5858 235.906 101.877 230.636 128.037C230.636 128.037 229.614 137.009 232.688 144.782" stroke="black" stroke-miterlimit="10" stroke-linecap="round"/>
<path d="M202.182 101.872C202.182 101.872 207.787 97.6251 198.144 87.0179C188.984 76.9408 179.286 67.906 160.33 64.5947C160.33 64.5947 166.051 90.2691 178.403 96.389C190.754 102.509 202.182 101.872 202.182 101.872Z" fill="#7E9E6E"/>
<path d="M156.173 120.751C156.173 120.751 175.95 125.065 209.492 113.872C209.492 113.872 207.412 110.404 192.424 109.239C177.437 108.072 152.27 117.869 156.173 120.751Z" fill="#7E9E6E"/>
<path d="M156.174 120.751C156.174 120.751 179.902 108.19 209.492 113.872C209.492 113.872 212.536 114.634 215.635 118.774" stroke="black" stroke-miterlimit="10" stroke-linecap="round"/>
<path d="M172.566 138.669C172.566 138.669 193.729 152.599 227.27 141.407C227.27 141.407 220.747 129.607 205.76 128.441C190.772 127.274 168.662 135.787 172.566 138.669Z" fill="#7E9E6E"/>
<path d="M172.566 138.669C172.566 138.669 195.377 128.025 227.271 141.407C227.271 141.407 231.022 143.076 234.121 147.216" stroke="black" stroke-miterlimit="10" stroke-linecap="round"/>
<path d="M244.202 70.839C244.202 70.839 250.448 70.0909 235.206 84.1896C220.814 97.5033 222.644 97.6071 222.644 97.6071C222.644 97.6071 228.105 77.6854 244.202 70.839Z" fill="black"/>
<path d="M212.172 104.351C212.172 104.351 216.837 106.149 225.251 98.428C233.665 90.7066 236.801 73.4983 244.2 70.839C244.2 70.839 225.638 76.8353 212.172 104.351Z" fill="#7E9E6E"/>
<path d="M242.765 163.476C233.275 144.36 220.099 122.642 202.182 101.873C202.182 101.873 197.78 96.1093 182.489 81.1665C167.197 66.2238 160.33 64.5956 160.33 64.5956" stroke="black" stroke-miterlimit="10" stroke-linecap="round"/>
<path d="M242.011 71.7552C242.011 71.7552 224.347 79.4629 212.175 104.351C209.226 110.38 212.754 115.152 215.637 118.774" stroke="black" stroke-miterlimit="10" stroke-linecap="round"/>
<path d="M403.077 278.072C403.077 278.072 388.314 288.966 354.297 280.971C354.297 280.971 354.387 275.515 366.595 270.268C378.804 265.019 405.007 273.02 403.077 278.072Z" fill="#7E9E6E"/>
<path d="M402.021 277.079C402.021 277.079 378.723 269.292 354.449 280.381C354.449 280.381 346.586 284.82 342.098 291.873" stroke="black" stroke-miterlimit="10" stroke-linecap="round"/>
<path d="M353.852 254.106C353.852 254.106 360.581 256.15 363.508 242.118C366.29 228.787 367.913 215.632 359.466 198.342C359.466 198.342 342.038 218.044 344.333 231.636C346.629 245.228 353.852 254.106 353.852 254.106Z" fill="#7E9E6E"/>
<path d="M403.89 259.366C403.89 259.366 409.082 262.918 388.326 263.486C368.728 264.023 370.036 265.306 370.036 265.306C370.036 265.306 387.268 253.914 403.89 259.366Z" fill="black"/>
<path d="M357.717 263.484C357.717 263.484 360.042 267.91 371.459 267.643C382.876 267.375 396.572 256.494 403.891 259.366C403.891 259.366 385.973 251.651 357.717 263.484Z" fill="#7E9E6E"/>
<path d="M327.801 323.121C337.707 304.217 347.555 280.802 353.853 254.106C353.853 254.106 355.936 247.159 359.058 226.008C362.18 204.857 359.467 198.342 359.467 198.342" stroke="black" stroke-miterlimit="10" stroke-linecap="round"/>
<path d="M401.636 258.611C401.636 258.611 383.269 252.775 357.716 263.483C351.526 266.077 349.769 270.173 347.152 277.767" stroke="black" stroke-miterlimit="10" stroke-linecap="round"/>
<path d="M167.811 152.122C163.033 152.122 158.407 150.446 154.738 147.384L144.559 138.891C140.896 135.834 136.545 134.197 132.088 134.197H81.5703C76.9858 134.197 73.2695 137.913 73.2695 142.497V152.122V325.38C73.2695 333.29 79.6821 339.702 87.5925 339.702H339.421C345.573 339.702 350.561 334.715 350.561 328.562V163.263C350.561 157.111 345.573 152.123 339.421 152.123H167.811V152.122Z" fill="#333969"/>
<path d="M350.559 329.495C350.559 329.495 333.421 297.348 331.707 293.656L284.868 198.236C283.691 195.701 281.149 194.078 278.353 194.078H104.297C97.9693 194.078 88.8176 190.762 83.9586 186.708L76.9352 180.847C73.2721 177.791 68.921 176.153 64.4636 176.153H16.3878C11.2706 176.153 7.79451 181.351 9.74959 186.08L67.8839 326.68C71.1429 334.561 78.8303 339.701 87.3583 339.701H347.415C349.11 339.701 350.676 338.248 350.675 336.553L350.559 329.495Z" fill="#7584F1"/>
<path d="M279.762 203.153L348.492 336.754" stroke="black" stroke-miterlimit="10" stroke-linejoin="round"/>
<path d="M251.44 226.175H192.236C190.621 226.175 189.119 225.363 188.252 224.022C186.251 220.927 188.509 216.876 192.236 216.876H251.44C253.054 216.876 254.556 217.688 255.424 219.029C257.424 222.125 255.166 226.175 251.44 226.175Z" stroke="black" stroke-miterlimit="10" stroke-linejoin="round"/>
<path d="M140.691 272.094L186.787 299.556" stroke="black" stroke-miterlimit="10" stroke-linecap="round" stroke-linejoin="round"/>
<path d="M178.381 270.771L149.416 299.722" stroke="black" stroke-miterlimit="10" stroke-linecap="round" stroke-linejoin="round"/>
<path d="M196.566 294.829C200.422 280.891 188.591 265.455 170.142 260.351C151.692 255.248 133.61 262.41 129.755 276.349C125.899 290.287 137.73 305.724 156.179 310.827C174.629 315.93 192.711 308.768 196.566 294.829Z" stroke="black" stroke-miterlimit="10" stroke-linecap="round" stroke-linejoin="round"/>
<path d="M401.808 152.212C402.914 147.434 397.829 141.477 393.016 142.417C389.097 143.181 387.146 144.12 386.517 144.328C385.286 144.734 376.1 144.136 375.048 145.666C374.287 146.774 379.079 148.054 382.144 148.359C382.775 148.421 382.961 149.247 382.422 149.58C379.41 151.448 373.413 155.244 372.904 156.182C372.22 157.438 369.105 162.325 369.983 162.868C370.86 163.411 373.515 160.969 375.239 159.236C376.964 157.503 382.004 156.03 382.004 156.03C382.004 156.03 373.241 164.825 372.085 167.264C370.365 170.895 375.356 169.303 375.356 169.303C374.575 171.355 378.669 170.906 379.636 170.131C381.548 168.601 387.456 161.473 387.473 162.198C387.49 162.925 381.369 170.693 381.989 172.507C382.61 174.321 385.085 172.045 386.517 170.131C387.95 168.217 392.156 162.868 392.156 162.868C392.156 162.868 396.934 159.38 400.923 153.355C400.955 153.307 401.795 152.269 401.808 152.212Z" fill="#DB9C7F"/>
<path d="M375.574 169.106L383.936 159.141" stroke="black" stroke-miterlimit="10" stroke-linecap="round"/>
<path d="M338.947 123.947L369.026 105.182C369.212 105.06 369.39 104.925 369.558 104.779L379.476 94.5729C381.636 92.6805 384.966 93.1214 386.558 95.5105L391.42 102.802C392.449 104.346 392.485 106.349 391.512 107.929L384.53 119.255C384.016 120.089 383.264 120.74 382.364 121.126C376.748 123.531 355.289 132.594 342.489 136.21C339.311 137.108 336.222 134.521 336.5 131.229L336.814 127.523C336.937 126.065 337.723 124.747 338.947 123.947Z" fill="#9EC68A"/>
<path d="M408.222 311.449L406.631 322.254C406.631 322.254 376.826 333.703 379.591 333.868C382.356 334.034 425.188 331.542 425.188 331.542L422.667 311.926L408.222 311.449Z" fill="black"/>
<path d="M416.525 136.591C416.525 136.591 418.901 159.451 420.682 160.638C422.463 161.825 424.838 162.419 424.838 162.419L420.979 136.294L416.525 136.591Z" stroke="#424242" stroke-miterlimit="10"/>
<path d="M463.591 120.879C463.591 120.879 475.671 145.478 472.164 159.184L405.197 149.972L406.595 124.416L463.591 120.879Z" fill="black"/>
<path d="M465.43 125.862C465.43 125.862 455.965 143.39 437.852 144.792" stroke="#424242" stroke-miterlimit="10" stroke-linecap="round"/>
<path d="M450.277 141.053C450.277 141.053 453.946 152.415 464.599 152.649" stroke="#424242" stroke-miterlimit="10" stroke-linecap="round"/>
<path d="M405.197 149.972C405.197 149.972 387.256 213.845 386.791 234.407L399.9 313.623C399.9 313.623 412.405 319.841 425.43 314.816C425.964 314.611 418.827 273.731 418.325 231.64L455.766 153.303L405.197 149.972Z" fill="black"/>
<path d="M472.457 156.504L469.82 233.581L499.311 314.163C499.311 314.163 486.971 324.588 471.382 315.1L439.365 238.371L442.649 182.541L428.696 174.092L426.617 149.912L472.457 156.504Z" fill="black"/>
<path d="M420.635 142.417L434.852 153.128L455.232 130.375L405.727 137.447L417.84 153.51L420.635 142.417Z" fill="white"/>
<path d="M478.473 310.145L475.9 319.468C475.9 319.468 457.098 339.861 459.869 339.861C462.639 339.861 493.516 327.237 493.516 327.237L489.558 307.815L478.473 310.145Z" fill="black"/>
<path d="M461.184 131.782C461.184 131.782 469.316 151.772 463.457 235.627C463.457 235.627 483.997 280.831 494.647 316.585" stroke="#424242" stroke-miterlimit="10" stroke-linecap="round"/>
<path d="M431.296 176.091L410.797 233.188L419.587 316.585" stroke="#424242" stroke-miterlimit="10" stroke-linecap="round"/>
<path d="M341.892 135.22C341.892 135.22 342.29 137.22 337.863 138.747C333.435 140.274 330.83 139.789 330.83 139.789C330.83 139.789 320.897 128.074 320.457 127.661C320.016 127.246 320.766 122.742 323.704 120.938C325.489 119.842 332.408 121.628 337.569 123.2C341.167 124.295 343.387 127.899 342.783 131.611C342.546 133.07 342.249 134.423 341.892 135.22Z" fill="#DB9C7F"/>
<path d="M333.747 132.111C333.747 132.111 325.626 130.933 322.195 128.103C322.195 128.103 317.066 127.07 315.976 127.717C314.886 128.363 313.993 129.282 311.635 129.68C309.277 130.078 309.988 128.507 312.465 126.28C313.173 125.644 315.067 123.356 316.709 123.046C318.92 122.63 323.704 120.938 323.704 120.938L333.304 132.414" fill="#DB9C7F"/>
<path d="M330.83 139.789C330.83 139.789 327.538 141.855 326.38 141.798C325.222 141.742 324.128 141.052 323.845 139.149C323.845 139.149 317.713 140.274 319.656 135.634C319.656 135.634 315.951 135.034 315.853 132.617C315.853 132.617 312.563 130.977 313.283 128.35C314.002 125.721 324.324 125.96 324.324 125.96L335.278 131.52L330.83 139.789Z" fill="#DB9C7F"/>
<path d="M328.506 140.228C328.506 140.228 331.633 137.455 331.459 136.342C331.285 135.23 330.698 134.618 329.987 134.831C329.035 135.117 325.409 137.882 323.846 139.149" stroke="#1A1C30" stroke-width="0.7799" stroke-miterlimit="10" stroke-linecap="round" stroke-linejoin="round"/>
<path d="M319.658 135.634C319.658 135.634 327.989 134.334 328.066 133.099C328.144 131.865 327.561 130.237 325.821 130.583C323.753 130.995 317.823 132.416 315.855 132.377" stroke="#1A1C30" stroke-width="0.7799" stroke-miterlimit="10" stroke-linecap="round" stroke-linejoin="round"/>
<path d="M329.986 134.831C329.986 134.831 331.518 133.881 330.912 132.819C330.306 131.757 329.479 131.384 327.707 131.844" stroke="#1A1C30" stroke-width="0.7799" stroke-miterlimit="10" stroke-linecap="round" stroke-linejoin="round"/>
<path d="M315.686 128.898C315.686 128.898 316.141 128.305 316.785 127.699" stroke="#1A1C30" stroke-width="0.7799" stroke-miterlimit="10" stroke-linecap="round" stroke-linejoin="round"/>
<path d="M333.754 144.346L333.611 144.426C332.489 145.058 331.067 144.66 330.437 143.538L308.777 105.026L312.983 102.661L334.643 141.173C335.274 142.294 334.876 143.714 333.754 144.346Z" fill="#333969"/>
<path d="M319.484 111.215L321.301 114.447C321.795 115.324 321.572 116.385 320.803 116.817L316.876 119.026C316.107 119.458 315.085 119.097 314.592 118.221L312.695 114.849" fill="#333969"/>
<path d="M311.08 79.5864C303.566 65.649 294.149 56.0549 288.163 55.6062L288.361 54.2826L285.234 56.3217C279.858 59.9821 282.715 76.3334 291.615 92.8426C300.514 109.352 312.086 119.768 317.461 116.107L320.402 114.147L319.555 113.014C321.624 106.619 318.395 93.1592 311.08 79.5864Z" fill="#333969"/>
<path d="M320.171 114.318C325.903 111.331 323.519 95.4164 314.845 78.772C306.172 62.1276 294.494 51.0561 288.762 54.0429C283.03 57.0298 285.414 72.9441 294.087 89.5884C302.761 106.233 314.439 117.304 320.171 114.318Z" fill="#7584F1"/>
<path d="M311.237 79.5701C318.48 93.0065 321.323 105.96 317.589 108.503C313.854 111.047 304.955 102.217 297.712 88.7807C290.469 75.3443 287.626 62.3909 291.361 59.8474C295.096 57.3039 303.994 66.1337 311.237 79.5701Z" fill="#D3DDF7"/>
<path d="M333.747 132.111C333.747 132.111 325.626 130.933 322.195 128.103C322.195 128.103 317.066 127.07 315.976 127.717C314.886 128.363 313.993 129.282 311.635 129.68C309.277 130.078 309.988 128.507 312.465 126.281C313.173 125.644 315.067 123.356 316.709 123.046C318.92 122.63 323.704 120.938 323.704 120.938L333.304 132.414" fill="#DB9C7F"/>
<path d="M333.746 132.111C333.746 132.111 325.626 130.933 322.194 128.103C322.194 128.103 317.066 127.07 315.976 127.717C314.886 128.363 313.993 129.282 311.635 129.68" stroke="#1A1C30" stroke-width="0.7799" stroke-miterlimit="10" stroke-linecap="round" stroke-linejoin="round"/>
<path d="M311.237 79.5701C303.994 66.1337 295.095 57.3039 291.36 59.8474C291.065 60.0481 290.816 60.3209 290.602 60.6469C294.919 60.9094 302.471 69.1078 308.771 80.7951C315.442 93.1703 318.376 105.129 315.88 108.929C316.526 108.968 317.101 108.834 317.587 108.503C321.323 105.96 318.479 93.0056 311.237 79.5701Z" fill="#333969"/>
<path d="M306.196 74.3038C310.049 81.4513 311.561 88.3424 309.574 89.6952C307.587 91.048 302.854 86.3513 299.001 79.2038C295.148 72.0562 293.636 65.1651 295.623 63.8123C297.609 62.4595 302.343 67.1562 306.196 74.3038Z" fill="white"/>
<path d="M450.261 97.3086L444.286 75.9895C442.092 68.1634 438.248 60.9214 433.168 54.5768C424.17 43.3374 400.534 44.3599 400.534 44.3599L382.349 57.4446C382.293 57.4746 382.237 57.5055 382.181 57.5364C371.474 63.4444 369.507 72.5581 369.789 86.6053L370.452 105.573L382.762 93.8172L385.869 98.0772C385.856 97.9545 385.844 97.8404 385.833 97.7298L387.305 100.046L385.869 98.0772C386.305 101.991 388.346 111.958 397.834 116.614L403.24 125.12L401.806 136.875C452.536 155.322 465.17 119.1 465.17 119.1L450.261 97.3086Z" fill="#9EC68A"/>
<path d="M380.16 91.8613L386.803 99.9842C386.803 99.9842 385.895 112.504 398.51 116.517" stroke="black" stroke-miterlimit="10" stroke-linecap="round"/>
<path d="M430.574 108.394L391.963 142.035C391.963 142.035 399.608 152.738 403.049 153.121L449.305 123.686" fill="#9EC68A"/>
<path d="M403.432 131.713C403.432 131.713 424.457 108.012 431.721 104.572" stroke="black" stroke-miterlimit="10" stroke-linecap="round"/>
<path d="M420.586 82.8299C420.586 82.8299 421.59 88.1339 428.327 106.77" stroke="black" stroke-miterlimit="10" stroke-linecap="round"/>
<path d="M408.402 150.062C408.402 150.062 451.6 122.539 451.983 114.511C452.365 106.483 441.088 69.2116 441.088 69.2116" stroke="black" stroke-miterlimit="10" stroke-linecap="round"/>
<path d="M413.133 111.07C413.133 111.07 423.53 112.049 426.751 102.613" stroke="black" stroke-miterlimit="10" stroke-linecap="round"/>
<path d="M371.027 104.043C371.027 104.043 373.894 101.177 376.761 104.426" stroke="black" stroke-miterlimit="10" stroke-linecap="round"/>
<path d="M337.01 122.968L343.126 120.101C343.126 120.101 350.581 128.224 347.905 135.201L340.45 137.399C340.45 137.399 343.891 129.754 337.01 122.968Z" fill="white"/>
<path d="M394.399 137.734C394.399 137.734 402.427 141.174 408.161 151.065L401.996 155.796C401.996 155.796 394.398 144.902 389.094 143.181L394.399 137.734Z" fill="white"/>
<path d="M387.663 43.1212L412.989 44.9845C412.989 44.9845 413.949 58.915 398.655 71.2001L391.787 64.527L388.045 72.6516C388.045 72.6516 382.232 69.3824 381.449 59.9984L382.684 48.6054L387.663 43.1212Z" fill="white"/>
<path d="M400.535 44.3591C401.459 45.1466 401.897 46.3595 401.683 47.5545C400.869 52.0882 398.411 63.0618 393.481 64.4403C387.247 66.1843 383.359 53.8734 383.359 53.8734L386.467 32.3698L400.535 44.3591Z" fill="#DB9C7F"/>
<path d="M380.785 49.4581L380.709 52.5892C380.651 52.621 379.586 61.8642 382.692 62.2202C395.675 59.8732 396.492 47.564 397.603 35.3483C397.603 35.3483 379.525 47.0193 380.785 49.4581Z" fill="black"/>
<path d="M359.172 26.4018C359.172 26.4018 356.009 56.5533 374.74 61.7416C393.473 66.9306 397.96 36.3829 397.314 25.8185C396.668 15.2542 391.959 11.3253 378.83 10.8517C359.407 10.1517 359.172 26.4018 359.172 26.4018Z" fill="#DB9C7F"/>
<path d="M375.999 40.9706C376.052 42.0558 375.537 42.9642 374.847 42.9994C374.157 43.0346 373.555 42.1827 373.502 41.0975C373.449 40.0124 373.964 39.1039 374.654 39.0688C375.344 39.0344 375.946 39.8854 375.999 40.9706Z" fill="black"/>
<path d="M378.058 35.4161C378.058 35.4161 371.869 38.1097 371.262 33.431" stroke="black" stroke-miterlimit="10" stroke-linecap="round"/>
<path d="M363.752 35.428C363.752 35.428 361.708 38.9769 359.357 37.4002" stroke="black" stroke-miterlimit="10" stroke-linecap="round"/>
<path d="M360.463 41.7315C360.463 41.7315 361.632 41.354 363.348 42.2599" stroke="black" stroke-miterlimit="10" stroke-linecap="round"/>
<path d="M378.805 52.9787C378.805 52.9787 380.492 51.3651 381.885 50.9979" stroke="black" stroke-miterlimit="10" stroke-linecap="round"/>
<path d="M366.144 45.2057C366.144 45.2057 365.068 47.6506 367.806 48.8241" stroke="black" stroke-miterlimit="10" stroke-linecap="round"/>
<path d="M358.952 32.8846C358.952 32.8846 359.269 24.0556 363.181 19.0673C363.181 19.0673 368.56 31.2924 391.738 33.7861L398.486 32.3681C398.486 32.3681 401.25 18.212 391.567 12.6377C381.885 7.06348 367.067 10.144 362.3 15.1564C354.219 23.6524 358.952 32.8846 358.952 32.8846Z" fill="black"/>
<path d="M387.24 32.1726L391.25 40.0939L394.086 31.1946L387.24 32.1726Z" fill="black"/>
<path d="M401.255 39.2712C400.1 43.4849 396.784 46.2703 393.85 45.4931C390.916 44.7159 389.473 40.6695 390.629 36.4557C391.784 32.242 395.099 29.4566 398.033 30.2338C400.967 31.011 402.409 35.0575 401.255 39.2712Z" fill="#DB9C7F"/>
<path d="M398.309 35.6022C398.309 35.6022 395.008 32.7627 393.205 37.9544C393.205 37.9544 395.133 40.0004 393.916 41.6062C393.916 41.6062 395.816 42.0377 396.754 40.3615" stroke="black" stroke-miterlimit="10" stroke-linecap="round" stroke-linejoin="round"/>
<path d="M396.881 37.5881C396.881 37.5881 396.698 36.4343 395.416 35.1184" stroke="black" stroke-miterlimit="10" stroke-linecap="round" stroke-linejoin="round"/>
<path d="M398.486 45.3507C398.486 46.9309 397.205 48.2116 395.625 48.2116C394.044 48.2116 392.764 46.9309 392.764 45.3507C392.764 43.7706 394.044 42.4898 395.625 42.4898C397.205 42.4898 398.486 43.7706 398.486 45.3507Z" fill="white"/>
<path d="M390.467 16.329C390.467 16.329 393.988 -2.05711 402.203 1.46348C410.418 4.98407 414.135 22.5879 406.311 23.957C398.487 25.3261 392.423 21.6099 392.423 21.6099L390.467 16.329Z" fill="black"/>
<path d="M390.564 21.6099C390.564 21.6099 404.159 32.9549 408.56 22.4901" stroke="black" stroke-miterlimit="10" stroke-linecap="round"/>
<path d="M441.94 182.107L426.203 173.227" stroke="#424242" stroke-miterlimit="10" stroke-linecap="round"/>
<path d="M84.747 65.4817C101.751 65.945 115.82 79.5641 116.799 96.546C117.374 106.531 113.504 115.618 106.992 122.028C106.029 122.975 105.582 124.325 105.807 125.657L108.253 140.13L93.2039 131.362C92.3469 130.862 91.3372 130.679 90.3643 130.875C86.6858 131.617 82.7885 131.754 78.7711 131.145C63.9051 128.894 52.3067 116.587 50.9359 101.614C49.1086 81.6581 65.0487 64.9447 84.747 65.4817Z" fill="#D3DDF7"/>
<path d="M82.3182 109.932L82.2256 102.035C83.3777 101.755 84.4286 101.389 85.3791 100.937C86.3288 100.486 87.1626 99.9645 87.879 99.3717C88.5953 98.7806 89.1949 98.1184 89.6788 97.3858C90.1617 96.6541 90.5263 95.8674 90.7768 95.0267C91.0256 94.186 91.1509 93.2982 91.1509 92.3631C91.1509 91.024 90.8232 89.7621 90.1686 88.5783C89.5149 87.3954 88.5798 86.4371 87.3651 85.7045C86.1504 84.9728 84.7023 84.6065 83.02 84.6065C81.2133 84.6065 79.5388 85.1058 77.9972 86.1017C76.4547 87.0994 75.2786 88.7962 74.4696 91.1947L73.6289 90.6337C74.3452 88.3604 75.5445 86.6156 77.2268 85.4009C78.9091 84.1853 80.8238 83.5779 82.9737 83.5779C84.8121 83.5779 86.4232 83.9683 87.8103 84.7463C89.1958 85.5252 90.2784 86.577 91.0574 87.9006C91.8354 89.2243 92.2258 90.7118 92.2258 92.3631C92.2258 93.6096 92.0156 94.7771 91.5952 95.8674C91.1749 96.9577 90.5821 97.9545 89.8195 98.8579C89.0559 99.762 88.1295 100.548 87.0391 101.218C85.9488 101.889 84.7186 102.394 83.3477 102.736L83.2551 109.932H82.3182ZM81.7581 115.819C81.7581 115.414 81.867 115.08 82.0849 114.815C82.3028 114.55 82.5996 114.417 82.9728 114.417C83.4086 114.417 83.72 114.543 83.9079 114.791C84.0949 115.041 84.1875 115.383 84.1875 115.819C84.1875 116.193 84.0863 116.52 83.8839 116.801C83.6806 117.081 83.3769 117.221 82.972 117.221C82.5662 117.221 82.2634 117.096 82.06 116.847C81.8584 116.598 81.7581 116.256 81.7581 115.819Z" fill="black"/>
</g>
<defs>
<clipPath id="clip0_2676_27630">
<rect width="507" height="350" fill="white"/>
</clipPath>
</defs>
</svg>
