<svg width="531" height="531" viewBox="0 0 531 531" fill="none" xmlns="http://www.w3.org/2000/svg">
<path fill-rule="evenodd" clip-rule="evenodd" d="M289.186 12.7352C288.818 25.0288 306.339 30.5335 313.164 20.0752C412.387 39.8929 490.401 118.239 509.398 217.319C500.544 225.025 506.447 240.255 518.067 240.071C532.635 240.438 535.956 218.419 521.939 214.568C501.65 109.983 419.026 27.5972 314.086 7.23146C311.913 2.23778 307.336 0 302.692 0C295.901 0 288.968 4.78372 289.186 12.7352ZM300.803 530.89H300.859C306.554 530.867 311.509 527.203 313.346 521.716C432.12 499.148 523.783 395.663 526.55 270.897V257.868H451.486C448.167 159.523 368.492 80.2572 269.636 76.955V2.27638C232.012 19.3405 205.639 89.9804 195.126 134.752H269.636V90.1656C366.093 93.468 442.079 174.383 438.575 270.897H513.455C510.687 389.793 423.267 487.955 310.213 509.057C291.77 492.175 275.727 528.503 300.803 530.89ZM9.99155e-05 258.768V258.787H56.0672C55.6966 220.99 61.9673 183.192 75.2465 147.78H27.4802C10.6993 181.351 0.924318 218.959 9.99155e-05 258.768ZM9.99155e-05 271.815V271.831C1.10718 311.638 11.2504 349.248 28.2177 382.819H81.7036C67.1333 347.594 58.6472 309.795 56.6195 271.814L9.99155e-05 271.815ZM94.244 134.936H181.848C192.36 87.2303 213.754 35.3059 245.846 3.01298C173.179 11.453 120.617 81.1758 94.244 134.936ZM34.3044 134.936H80.4101C100.145 89.2496 132.051 47.9654 177.42 16.7733C116.56 37.6922 65.8417 80.0743 34.3044 134.936ZM192.546 147.78C185.535 183.01 182.033 220.806 182.216 258.787H270.374V164.844C368.676 169.064 397.261 308.142 310.396 351.078C290.663 341.537 281.994 374.199 303.94 375.481C311.319 375.481 317.22 369.426 317.22 362.273C415.338 312.914 381.772 152 270.374 147.78L192.546 147.78ZM88.7114 147.78C74.8787 183.01 68.4227 220.806 68.9774 258.787H169.123C168.937 220.99 172.073 183.193 179.083 147.78H88.7114ZM182.403 271.815C183.325 309.979 187.935 347.96 195.68 382.82H269.822V271.815H182.403ZM69.5313 271.815C71.559 309.979 80.4109 347.777 95.7212 382.82H182.403C174.841 347.595 170.414 309.796 169.308 271.815H69.5313ZM432.491 310.713C412.571 382.454 347.653 435.662 269.823 438.416V395.48H198.816C207.668 433.829 238.285 515.845 269.823 526.304V519.882V451.626C353.554 448.874 423.452 391.628 445.032 314.38C459.787 311.26 457.02 288.325 441.897 288.693C441.758 288.69 441.618 288.686 441.483 288.686C430.494 288.686 424.476 303.1 432.491 310.713ZM35.4112 395.665C68.0548 451.444 120.618 494.194 183.325 514.011C141.274 483.366 108.998 442.088 87.2352 395.665H35.4112ZM101.62 395.848C130.207 448.874 180.189 519.515 246.215 525.938C216.891 493.829 196.419 441.903 185.352 395.848H101.62Z" fill="url(#paint0_linear_1047_365)"/>
<defs>
<linearGradient id="paint0_linear_1047_365" x1="9.99155e-05" y1="265.444" x2="535.956" y2="265.444" gradientUnits="userSpaceOnUse">
<stop stop-color="#BF71FF"/>
<stop offset="0.529412" stop-color="#6A6AFF"/>
<stop offset="1" stop-color="#6AFFF3"/>
</linearGradient>
</defs>
</svg>
