<svg width="30" height="30" viewBox="0 0 30 30" fill="none" xmlns="http://www.w3.org/2000/svg">
<path d="M24.1751 18.1125L22.9251 16.0375C22.6625 15.575 22.4251 14.7 22.4251 14.1875V11.025C22.4251 8.0875 20.7001 5.55 18.2126 4.3625C17.5626 3.2125 16.3626 2.5 14.9876 2.5C13.6251 2.5 12.4001 3.2375 11.7501 4.4C9.31255 5.6125 7.62505 8.125 7.62505 11.025V14.1875C7.62505 14.7 7.38755 15.575 7.12505 16.025L5.86255 18.1125C5.36255 18.95 5.25005 19.875 5.56255 20.725C5.86255 21.5625 6.57505 22.2125 7.50005 22.525C9.92505 23.35 12.4751 23.75 15.0251 23.75C17.5751 23.75 20.1251 23.35 22.5501 22.5375C23.4251 22.25 24.1001 21.5875 24.4251 20.725C24.7501 19.8625 24.6625 18.9125 24.1751 18.1125Z" fill="#636B7B"/>
<path d="M18.5375 25.0125C18.0125 26.4625 16.625 27.5 15 27.5C14.0125 27.5 13.0375 27.1 12.35 26.3875C11.95 26.0125 11.65 25.5125 11.475 25C11.6375 25.025 11.8 25.0375 11.975 25.0625C12.2625 25.1 12.5625 25.1375 12.8625 25.1625C13.575 25.225 14.3 25.2625 15.025 25.2625C15.7375 25.2625 16.45 25.225 17.15 25.1625C17.4125 25.1375 17.675 25.125 17.925 25.0875C18.125 25.0625 18.325 25.0375 18.5375 25.0125Z" fill="#636B7B"/>
</svg>
