<svg width="21" height="21" viewBox="0 0 21 21" fill="none" xmlns="http://www.w3.org/2000/svg">
<path d="M10.5 0C4.70094 0 0 4.70094 0 10.5C0 16.2991 4.70094 21 10.5 21C16.2991 21 21 16.2991 21 10.5C21 4.70094 16.2991 0 10.5 0ZM10.5 19.7415C10.2306 19.7466 9.96292 19.6979 9.71256 19.5983C9.4622 19.4988 9.2342 19.3503 9.04189 19.1616C8.84959 18.9729 8.69683 18.7477 8.59255 18.4993C8.48827 18.2508 8.43455 17.9841 8.43455 17.7147C8.43455 17.4453 8.48827 17.1785 8.59255 16.9301C8.69683 16.6817 8.84959 16.4565 9.04189 16.2678C9.2342 16.0791 9.4622 15.9306 9.71256 15.831C9.96292 15.7314 10.2306 15.6828 10.5 15.6879C11.0309 15.6979 11.5367 15.9158 11.9086 16.2948C12.2806 16.6739 12.4889 17.1837 12.4889 17.7147C12.4889 18.2457 12.2806 18.7555 11.9086 19.1345C11.5367 19.5135 11.0309 19.7315 10.5 19.7415ZM10.5 14.1751L4.82304 9.43439H7.32992V3.09278H13.6715V9.43439H16.177L10.5 14.1751Z" fill="white"/>
</svg>
