<svg width="30" height="30" viewBox="0 0 30 30" fill="none" xmlns="http://www.w3.org/2000/svg">
<g clip-path="url(#clip0_1835_13040)">
<path d="M21.9299 23.4822C20.6508 23.0026 19.901 22.1316 19.6883 20.807C19.622 20.3925 19.6675 19.986 19.7655 19.5835C20.0978 18.2179 20.4312 16.8512 20.7666 15.4866C21.2176 13.6504 22.7509 12.6532 24.5889 12.9956C25.0469 13.0807 25.5059 13.1608 26.0045 13.2499C25.864 12.2067 25.5751 11.2405 25.1597 10.3124C23.1436 5.80698 18.5052 3.18684 13.6561 3.81058C8.91573 4.42032 5.0647 8.13677 4.2031 12.9265C4.15265 13.2059 4.19914 13.2689 4.48799 13.2019C4.9915 13.0857 5.50194 12.9756 6.01534 12.9375C7.72075 12.8114 9.06609 13.8677 9.42814 15.5877C9.71601 16.9524 9.99892 18.318 10.2828 19.6826C10.7131 21.7461 9.27976 23.5763 7.19548 23.5803C6.07569 23.5823 4.94798 23.6954 3.83511 23.4962C1.7627 23.1258 0.0849833 21.1784 0.0444254 19.0639C0.0117812 17.3418 -0.0426258 15.6137 0.0572852 13.8967C0.211603 11.2435 1.08904 8.80257 2.58671 6.61895C5.05877 3.01763 8.4409 0.747908 12.7331 0.169214C18.983 -0.672796 23.9647 1.63197 27.5565 6.88427C29.0147 9.01683 29.7971 11.4367 29.9376 14.0208C30.0326 15.7749 30.0167 17.5441 29.9198 19.2982C29.8387 20.7709 29.0671 21.9273 27.8592 22.7643C27.695 22.8785 27.5546 23.0036 27.4398 23.1728C24.9688 26.8482 21.5599 29.0248 17.236 29.8138C15.684 30.0971 14.1398 29.969 12.5917 29.986C11.6796 29.996 11.0663 29.2922 11.0544 28.367C11.0455 27.6802 11.0445 26.9934 11.0544 26.3076C11.0702 25.1922 11.8527 24.4043 12.9537 24.4003C14.5701 24.3943 16.1855 24.4013 17.8019 24.3973C18.3182 24.3963 18.7664 24.5615 19.1502 24.9109C19.2145 24.969 19.255 25.0851 19.3896 25.027C20.2927 24.6316 21.1365 24.137 21.9299 23.4822Z" fill="#3D4450"/>
</g>
<defs>
<clipPath id="clip0_1835_13040">
<rect width="30" height="30" fill="white"/>
</clipPath>
</defs>
</svg>
