<svg width="34" height="34" viewBox="0 0 34 34" fill="none" xmlns="http://www.w3.org/2000/svg">
<path d="M11.3333 17C11.3333 18.4356 11.3976 19.8273 11.5169 21.1556H22.4831C22.6024 19.8273 22.6667 18.4356 22.6667 17C22.6667 15.5644 22.6024 14.1727 22.4823 12.8444H11.5184C11.3976 14.1727 11.3333 15.5644 11.3333 17ZM9.24271 12.8444C9.12446 14.2265 9.06572 15.6129 9.06667 17C9.06667 18.425 9.12711 19.816 9.24196 21.1556H0.511511C0.177556 19.8258 0 18.4333 0 17C0 15.5667 0.177556 14.1742 0.511511 12.8444H9.24271ZM11.7859 10.5778H22.2133C21.8779 8.29071 21.3701 6.25147 20.7408 4.5764C20.1522 3.01013 19.4797 1.82013 18.7914 1.04342C18.1016 0.263689 17.4926 0 17 0C16.5074 0 15.8984 0.264445 15.2078 1.04267C14.5195 1.82089 13.8471 3.01013 13.2585 4.5764C12.6291 6.25147 12.1214 8.29071 11.7852 10.5778M24.7573 12.8444C24.8729 14.184 24.9333 15.575 24.9333 17C24.9333 18.425 24.8729 19.816 24.758 21.1556H33.4885C33.8224 19.8258 34 18.4333 34 17C34 15.5667 33.8224 14.1742 33.4885 12.8444H24.7573ZM32.7458 10.5778H24.5034C24.1483 8.01796 23.5862 5.70444 22.8631 3.77929C22.4015 2.55076 21.8635 1.45067 21.2508 0.535689C26.4792 1.88209 30.733 5.65307 32.7443 10.5778M9.49582 10.5778H1.25498C3.26551 5.65307 7.52004 1.88209 12.7485 0.536444C12.1365 1.45067 11.5978 2.55076 11.1361 3.77929C10.4131 5.70444 9.85169 8.01796 9.49658 10.5778M9.49431 23.4222H1.25498C3.26476 28.3447 7.51551 32.1141 12.7394 33.462C12.1274 32.5478 11.591 31.4477 11.1301 30.2207C10.4085 28.294 9.84791 25.982 9.49431 23.4222ZM20.7476 29.4244C21.3747 27.7493 21.8809 25.71 22.2164 23.4222H11.7836C12.1184 25.71 12.6246 27.7493 13.2524 29.4244C13.8403 30.9906 14.512 32.1799 15.2018 32.9566C15.8908 33.7348 16.5013 34 17 34C17.4987 34 18.1092 33.7348 18.7982 32.9566C19.488 32.1799 20.1597 30.9906 20.7476 29.4244ZM22.8699 30.22C23.5915 28.2948 24.1521 25.9813 24.5057 23.4222H32.745C30.7352 28.3447 26.4845 32.1141 21.2606 33.462C21.8726 32.5478 22.409 31.447 22.8699 30.22Z" fill="#F980FF"/>
</svg>
