<svg width="30" height="30" viewBox="0 0 30 30" fill="none" xmlns="http://www.w3.org/2000/svg">
<g clip-path="url(#clip0_1835_13029)">
<path d="M16.1136 29.9999C15.332 29.9999 14.5513 29.9999 13.7697 29.9999C13.7266 29.8997 13.635 29.9443 13.5661 29.9373C11.9458 29.7689 10.3733 29.3984 8.90023 28.699C4.00491 26.373 1.07367 22.5448 0.159758 17.1878C0.104939 16.8682 0.133131 16.5354 0 16.2291C0 15.4084 0 14.5884 0 13.7676C0.10024 13.7245 0.055602 13.6329 0.0626501 13.5632C0.374334 10.522 1.44252 7.77149 3.44027 5.4603C7.35591 0.931127 12.3139 -0.823213 18.1897 0.357834C24.8134 1.68925 29.7384 7.5984 29.9875 14.3526C30.1222 18.0179 29.09 21.3316 26.8205 24.2176C24.3576 27.3496 21.1374 29.2261 17.1896 29.8401C16.8309 29.8958 16.4621 29.8785 16.1136 29.9999ZM14.971 24.1401C16.7581 24.1401 18.5452 24.144 20.3323 24.1393C22.406 24.1331 23.7052 22.0404 22.7271 20.214C21.0966 17.1705 18.5241 15.5164 15.0728 15.4898C11.5973 15.4624 8.98559 17.0883 7.3144 20.1372C6.27128 22.0396 7.5603 24.137 9.72721 24.1393C11.4744 24.1417 13.2223 24.1401 14.971 24.1401ZM19.012 9.88923C19.0331 7.69239 17.2444 5.87696 15.0376 5.85659C12.8182 5.83623 10.9974 7.62503 10.9849 9.8391C10.9724 12.0383 12.7446 13.8623 14.9162 13.8843C17.1865 13.9078 18.99 12.1487 19.012 9.88923Z" fill="#EA0000"/>
</g>
<defs>
<clipPath id="clip0_1835_13029">
<rect width="30" height="30" fill="white"/>
</clipPath>
</defs>
</svg>
