<svg width="30" height="30" viewBox="0 0 30 30" fill="none" xmlns="http://www.w3.org/2000/svg">
<path d="M23.3435 30C23.1003 29.9994 22.8609 29.9368 22.646 29.8176L15 25.6026L7.35404 29.8176C7.10647 29.9536 6.82759 30.0143 6.54884 29.993C6.27009 29.9717 6.00256 29.8692 5.77642 29.697C5.55027 29.5248 5.3745 29.2898 5.26893 29.0185C5.16335 28.7472 5.13218 28.4504 5.17891 28.1615L6.6385 19.2345L0.452124 12.9121C0.251997 12.7072 0.110484 12.4477 0.0435661 12.163C-0.0233521 11.8783 -0.0130107 11.5796 0.0734226 11.3007C0.159856 11.0218 0.318939 10.7738 0.532707 10.5847C0.746475 10.3956 1.00641 10.2729 1.28317 10.2305L9.83219 8.92828L13.6559 0.806585C13.7937 0.560985 13.9902 0.357367 14.2261 0.215894C14.462 0.0744211 14.729 0 15.0007 0C15.2725 0 15.5395 0.0744211 15.7754 0.215894C16.0113 0.357367 16.2078 0.560985 16.3456 0.806585L20.1678 8.92828L28.7168 10.2305C28.9936 10.2729 29.2535 10.3956 29.4673 10.5847C29.6811 10.7738 29.8401 11.0218 29.9266 11.3007C30.013 11.5796 30.0233 11.8783 29.9564 12.163C29.8895 12.4477 29.748 12.7072 29.5479 12.9121L23.3615 19.2345L24.8226 28.1615C24.8595 28.3871 24.849 28.6185 24.7917 28.8394C24.7345 29.0604 24.6319 29.2656 24.4912 29.4407C24.3505 29.6157 24.175 29.7565 23.9771 29.8531C23.7791 29.9497 23.5619 29.9999 23.3435 30Z" fill="#EA0000"/>
</svg>
