<svg width="188" height="189" viewBox="0 0 188 189" fill="none" xmlns="http://www.w3.org/2000/svg">
<path d="M187.991 95.5172C187.235 147.475 144.117 189.183 91.9051 188.022C39.8972 186.866 -1.15864 143.869 0.0249612 91.5886C1.19093 40.0919 44.5409 -2.20037 98.1631 0.0887635C148.703 2.24695 188.865 44.4738 187.991 95.5172ZM94.0255 177.986C103.103 177.99 112.119 176.51 120.719 173.607C132.676 169.593 143.165 163.156 152.279 154.45C152.863 153.894 152.991 153.443 152.621 152.73C151.909 151.353 151.309 149.923 150.607 148.545C137.64 123.317 108.654 109.426 80.9732 115.54C59.6507 120.249 44.5208 132.861 35.392 152.69C35.0293 153.476 35.1628 153.919 35.7848 154.506C52.1336 169.953 71.5849 177.669 94.0255 177.986ZM127.552 70.5432C127.564 61.6493 124.047 53.1138 117.773 46.81C111.499 40.5061 102.98 36.9489 94.0859 36.9189C75.5538 36.8509 60.4918 51.8801 60.444 70.4903C60.4405 74.8967 61.305 79.2606 62.988 83.3328C64.671 87.4051 67.1397 91.106 70.253 94.2242C73.3663 97.3424 77.0633 99.8169 81.1329 101.506C85.2025 103.196 89.565 104.067 93.9714 104.071C98.3777 104.074 102.742 103.21 106.814 101.527C110.886 99.8435 114.587 97.3749 117.705 94.2616C120.823 91.1483 123.298 87.4513 124.987 83.3817C126.677 79.3121 127.548 74.9496 127.552 70.5432Z" fill="#DBDBDB"/>
<path d="M94.0258 177.987C71.5878 177.669 52.1339 169.953 35.7776 154.506C35.1556 153.919 35.0221 153.476 35.3847 152.69C44.5186 132.861 59.6485 120.249 80.9659 115.54C108.647 109.426 137.628 123.317 150.599 148.545C151.307 149.923 151.906 151.353 152.614 152.731C152.984 153.446 152.866 153.894 152.272 154.451C143.158 163.156 132.669 169.593 120.712 173.607C112.114 176.51 103.1 177.989 94.0258 177.987Z" fill="white"/>
<path d="M127.551 70.5431C127.548 74.9495 126.676 79.312 124.987 83.3816C123.297 87.4512 120.823 91.1482 117.705 94.2615C114.586 97.3748 110.885 99.8435 106.813 101.526C102.741 103.21 98.3771 104.074 93.9707 104.071C89.5644 104.067 85.2019 103.196 81.1323 101.506C77.0627 99.8168 73.3657 97.3423 70.2523 94.2241C67.139 91.1059 64.6704 87.405 62.9874 83.3328C61.3043 79.2605 60.4399 74.8966 60.4434 70.4903C60.4912 51.88 75.5532 36.8508 94.0853 36.9188C102.979 36.9488 111.498 40.5061 117.772 46.8099C124.046 53.1137 127.563 61.6492 127.551 70.5431Z" fill="white"/>
</svg>
